<svg width="32" height="32" viewBox="0 0 32 32" fill="none" xmlns="http://www.w3.org/2000/svg">
<g clip-path="url(#clip0)">
<path d="M27.3368 4.65026C24.3286 1.65324 20.3286 0.00182855 16.0669 0C7.28497 0 0.138251 7.113 0.134736 15.8559C0.133712 18.6506 0.867157 21.3786 2.26124 23.7833L0.000976562 32L8.44679 29.7951C10.7738 31.0586 13.3938 31.7244 16.06 31.7255H16.0668H16.0669C24.8474 31.7255 31.9952 24.6112 31.9989 15.8687C32.0004 11.6315 30.3446 7.64748 27.3368 4.65026ZM16.0669 29.0473H16.0617C13.6852 29.0461 11.3546 28.4109 9.32187 27.2099L8.8381 26.9244L3.82618 28.2327L5.16429 23.3694L4.8491 22.8708C3.52345 20.7722 2.82361 18.3471 2.82461 15.8569C2.82752 8.5901 8.7676 2.67822 16.0719 2.67822C19.609 2.67968 22.9335 4.05235 25.4338 6.54338C27.934 9.03438 29.3098 12.3458 29.3088 15.8676C29.3057 23.1347 23.3654 29.0473 16.0669 29.0473Z" fill="#E0E0E0"/>
<path d="M0.732422 31.0874L2.88944 23.2461C1.55869 20.9512 0.858887 18.3476 0.859727 15.681C0.863216 7.33769 7.68354 0.549805 16.0636 0.549805C20.1308 0.551633 23.9482 2.12753 26.8183 4.98772C29.6891 7.84788 31.2691 11.6497 31.2674 15.6929C31.2639 24.0364 24.4432 30.8249 16.0642 30.8249C16.0636 30.8249 16.0646 30.8249 16.0642 30.8249H16.0574C13.513 30.8241 11.0128 30.1882 8.79228 28.9833L0.732422 31.0874Z" fill="url(#paint0_linear)"/>
<path fill-rule="evenodd" clip-rule="evenodd" d="M12.1298 9.12461C11.8351 8.47215 11.5248 8.45909 11.2443 8.44768C11.015 8.43788 10.7524 8.43848 10.4902 8.43848C10.2278 8.43848 9.80149 8.53665 9.44093 8.92869C9.08017 9.32073 8.06348 10.2685 8.06348 12.196C8.06348 14.1237 9.47373 15.9864 9.6703 16.248C9.86708 16.5092 12.3926 20.5912 16.3924 22.1616C19.7165 23.4667 20.393 23.2071 21.1145 23.1418C21.836 23.0765 23.4426 22.1942 23.7706 21.2793C24.0986 20.3646 24.0986 19.5806 24.0002 19.4167C23.9018 19.2534 23.6394 19.1555 23.2458 18.9596C22.8523 18.7636 20.9177 17.8157 20.5569 17.6851C20.1962 17.5545 19.9338 17.4892 19.6714 17.8814C19.4091 18.2732 18.6553 19.1555 18.4258 19.4167C18.1962 19.6785 17.9666 19.7112 17.573 19.5152C17.1795 19.3187 15.9121 18.9055 14.4086 17.5708C13.2388 16.5324 12.449 15.25 12.2194 14.8578C11.9898 14.4659 12.1948 14.2537 12.3922 14.0584C12.5689 13.8829 12.7858 13.601 12.9825 13.3722C13.1789 13.1435 13.2445 12.9802 13.3757 12.719C13.5069 12.4573 13.4413 12.2286 13.3429 12.0327C13.2445 11.8368 12.4797 9.89928 12.1298 9.12461Z" fill="white"/>
<path d="M27.2056 4.6008C24.2319 1.63818 20.2779 0.00576092 16.0651 0.00390625C7.38396 0.00390625 0.319294 7.03525 0.315805 15.6778C0.314781 18.4404 1.0398 21.1371 2.41788 23.5142L0.183594 31.6365L8.53246 29.457C10.8328 30.7059 13.4227 31.3641 16.0583 31.3651H16.065H16.0651C24.7448 31.3651 31.8105 24.3325 31.8142 15.6904C31.8156 11.5019 30.1789 7.56362 27.2056 4.6008ZM16.0651 28.7178H16.06C13.7107 28.7166 11.4069 28.0886 9.39749 26.9015L8.91926 26.6193L3.96487 27.9125L5.28761 23.105L4.97604 22.6122C3.66561 20.5377 2.9738 18.1404 2.97482 15.6788C2.97768 8.49545 8.84957 2.65143 16.07 2.65143C19.5666 2.65287 22.8529 4.00978 25.3245 6.47221C27.796 8.93464 29.156 12.208 29.155 15.6894C29.1519 22.873 23.2798 28.7178 16.0651 28.7178Z" fill="white"/>
</g>
<defs>
<linearGradient id="paint0_linear" x1="15.9999" y1="31.0874" x2="15.9999" y2="0.549856" gradientUnits="userSpaceOnUse">
<stop stop-color="#20B038"/>
<stop offset="1" stop-color="#60D66A"/>
</linearGradient>
<clipPath id="clip0">
<rect width="32" height="32" fill="white"/>
</clipPath>
</defs>
</svg>
